<svg width="65" height="63" viewBox="0 0 65 63" fill="none" xmlns="http://www.w3.org/2000/svg">
<rect width="64.5678" height="62.55" fill="black"/>
<path d="M17.7547 35.5822L15.6565 43.4808H12.0582L19.6293 16.9937L19.6294 16.9937L19.6322 16.9832C19.7628 16.4857 19.8567 16.0781 19.9032 14.8765H25.125L33.5778 43.4687H29.5405L27.3547 35.5031L27.2538 35.1354H26.8725H18.2547H17.7547V35.5822ZM25.2935 14.8773C25.2934 14.8773 25.2917 14.8772 25.2885 14.8768C25.292 14.877 25.2936 14.8772 25.2935 14.8773ZM19.911 14.6455C19.911 14.6455 19.911 14.6459 19.9109 14.6467L19.911 14.6455ZM25.7991 31.7751H26.4422L26.2836 31.1518C26.0401 30.1946 25.6893 28.8827 25.303 27.4381C24.4778 24.3526 23.4908 20.6618 23.0418 18.5289L22.9582 18.1319H22.5525H22.5101H22.0936L22.0184 18.5416C21.4957 21.387 20.2472 26.0546 19.1836 30.0305C19.0823 30.4094 18.9826 30.782 18.8854 31.1461L18.7176 31.7751H19.3685H25.7991ZM40.2179 33.5414V34.0257L39.7179 34.0293V34.0414V34.5414H39.7359C39.8329 36.2224 40.3011 37.6911 41.2628 38.7717C42.3299 39.9707 43.935 40.6148 46.0814 40.6148C47.586 40.6148 48.9172 40.4336 50.2787 39.8937V42.8367C50.2787 42.8882 50.2732 42.9111 50.271 42.9179C50.2683 42.9215 50.2602 42.9308 50.241 42.9468C48.9239 43.5894 47.2566 43.8924 45.1048 43.8924C41.6906 43.8924 39.4046 42.6431 37.9567 40.7397C36.4925 38.8149 35.841 36.1613 35.841 33.2948C35.841 30.2003 36.641 27.4271 38.1054 25.4414C39.5598 23.4692 41.6795 22.2553 44.4006 22.2553C47.1641 22.2553 48.9865 23.4082 50.135 25.0105C51.2994 26.6348 51.792 28.7547 51.792 30.6778C51.792 31.9386 51.7002 32.9325 51.5941 33.3751C51.0725 33.4591 49.5375 33.5414 47.2275 33.5414H40.2179ZM50.6843 39.7227C50.6842 39.7228 50.6823 39.7237 50.6788 39.7249C50.6826 39.7231 50.6844 39.7225 50.6843 39.7227ZM47.829 30.7641L48.1815 30.6553V30.2864C48.1815 30.2335 48.1877 30.1785 48.1981 30.1027C48.1989 30.0963 48.1999 30.0893 48.201 30.0818C48.2099 30.0183 48.2239 29.9185 48.2239 29.8243C48.2239 29.0256 48.033 27.8865 47.4428 26.929C46.8359 25.9445 45.807 25.1617 44.213 25.1617C42.7523 25.1617 41.6855 25.8169 40.9667 26.8015C40.2633 27.7649 39.9017 29.0272 39.7652 30.2743L39.7046 30.8287H40.2622H45.6839H45.6912C46.373 30.8287 46.8413 30.8287 47.1558 30.8234C47.3133 30.8207 47.4401 30.8165 47.5395 30.8097C47.6275 30.8036 47.7345 30.7933 47.829 30.7641Z" fill="white" stroke="white"/>
</svg>
