<svg width="65" height="64" viewBox="0 0 65 64" fill="none" xmlns="http://www.w3.org/2000/svg">
<path d="M0 0V64H65V0H0ZM33.5277 29.7248C31.184 33.0518 26.4919 34.7308 20.017 34.4296V46.5711H14.4892V12.9375L22.8518 12.798C29.8033 12.5405 35.1324 16.1657 35.1832 23.4045C35.1232 25.9535 34.6869 28.0795 33.5277 29.7249V29.7248ZM51.625 26.056C51.6183 26.2725 51.5059 26.3403 51.3415 26.3351C49.2789 26.151 47.1531 26.4601 45.3885 26.8934V46.5711H39.8605V26.7537C39.8827 25.5794 39.8172 24.7267 39.7188 23.823C39.698 23.7196 39.6947 23.5027 40.0023 23.4042C42.7657 22.4174 46.9398 21.2264 51.3415 21.311C51.5154 21.3101 51.6236 21.3872 51.625 21.5901V26.056ZM29.5136 23.5439C29.52 25.2224 29.2381 26.4221 28.5876 27.2822C26.9119 29.4976 23.6097 29.4597 22.5685 29.545H20.017V17.6825H22.9935C27.8291 17.7159 29.4399 20.1248 29.5136 23.5439Z" fill="black"/>
</svg>
