<svg width="65" height="64" viewBox="0 0 65 64" fill="none" xmlns="http://www.w3.org/2000/svg">
<path fill-rule="evenodd" clip-rule="evenodd" d="M65 64H0V0H65V64ZM51.595 27.1268V22.163C50.7647 21.799 46.0102 20.4599 42.2541 21.8711C36.8433 23.9039 37.0377 30.0276 39.0909 32.431C41.7512 35.545 48.3689 36.706 47.286 39.7625C46.7252 41.3452 44.1073 41.6208 41.7993 41.0894C39.65 40.5946 37.7812 39.3411 37.7812 39.3411V44.5967C37.7812 44.5967 39.6284 45.6108 41.8955 45.852C44.8019 46.1611 48.4449 45.5774 50.27 43.9801C53.5187 41.1367 54.0177 34.838 47.8611 31.9131C42.7379 29.4794 42.8222 28.7847 42.8581 27.5364C42.9063 25.8644 46.4717 24.8351 51.595 27.1268ZM23.9675 13.1969C28.2302 13.3429 34.4947 15.2773 34.4947 23.5256C34.4947 31.774 26.83 34.4806 19.8363 33.8909V45.57H14.6263V13.3062C14.6263 13.3062 19.7046 13.0509 23.9675 13.1969ZM25.3204 28.7812C27.567 27.9741 29.0272 26.239 29.0272 23.5438C29.0272 20.6861 27.5412 18.751 25.2685 18.2044C22.8074 17.6122 19.8363 17.9613 19.8363 17.9613V29.2167C19.8363 29.2167 23.9489 29.274 25.3204 28.7812Z" fill="black"/>
</svg>
